<?xml version="1.0" encoding="UTF-8" standalone="no"?><!DOCTYPE svg PUBLIC "-//W3C//DTD SVG 1.1//EN" "http://www.w3.org/Graphics/SVG/1.1/DTD/svg11.dtd"><svg width="100%" height="100%" viewBox="0 0 211 43" version="1.1" xmlns="http://www.w3.org/2000/svg" xmlns:xlink="http://www.w3.org/1999/xlink" xml:space="preserve" xmlns:serif="http://www.serif.com/" style="fill-rule:evenodd;clip-rule:evenodd;stroke-linejoin:round;stroke-miterlimit:2;"><rect id="Artboard1" x="0" y="0" width="210.298" height="42.3" style="fill:none;"/><g><g><path d="M56.4,32l0,-20.7l2.9,0l0.3,3.8l0.2,0c0.7,-1.3 1.6,-2.4 2.6,-3.1c1,-0.8 2.1,-1.2 3.3,-1.2c0.8,0 1.6,0.2 2.2,0.4l-0.7,3.1c-0.3,-0.1 -0.6,-0.2 -0.9,-0.2c-0.4,-0.1 -0.7,-0.1 -1.2,-0.1c-0.9,0 -1.8,0.3 -2.8,1c-1,0.7 -1.8,2 -2.5,3.7l0,13.2l-3.4,0.1Z" style="fill:#312933;fill-rule:nonzero;"/><path d="M69,32l0,-20.7l3.5,0l0,20.6l-3.5,0.1Z" style="fill:#312933;fill-rule:nonzero;"/><path d="M84.3,41.5c-1.3,0 -2.4,-0.2 -3.5,-0.4c-1.1,-0.2 -2,-0.6 -2.7,-1.1c-0.8,-0.5 -1.3,-1 -1.7,-1.7c-0.4,-0.7 -0.6,-1.5 -0.6,-2.4c0,-0.9 0.2,-1.7 0.8,-2.5c0.6,-0.8 1.3,-1.5 2.2,-2.2l0,-0.2c-0.5,-0.3 -0.9,-0.7 -1.3,-1.3c-0.4,-0.6 -0.6,-1.3 -0.6,-2c0,-0.9 0.2,-1.7 0.7,-2.3c0.5,-0.6 1,-1.2 1.5,-1.5l0,-0.2c-0.7,-0.6 -1.3,-1.3 -1.8,-2.3c-0.6,-0.9 -0.9,-2 -0.9,-3.3c0,-1.1 0.2,-2.1 0.6,-3.1c0.4,-0.9 0.9,-1.7 1.7,-2.3c0.7,-0.6 1.6,-1.1 2.5,-1.5c0.9,-0.3 2,-0.5 3,-0.5c0.6,0 1.1,0.1 1.6,0.2c0.5,0.1 0.9,0.2 1.3,0.4l7.2,0l0,2.7l-4.2,0c0.5,0.5 0.9,1.1 1.2,1.8c0.3,0.7 0.5,1.6 0.5,2.4c0,1.1 -0.2,2.1 -0.6,3c-0.4,0.9 -0.9,1.7 -1.7,2.3c-0.7,0.6 -1.5,1.1 -2.4,1.4c-0.9,0.3 -1.9,0.5 -3,0.5c-0.5,0 -1,-0.1 -1.6,-0.2c-0.6,-0.2 -1,-0.3 -1.5,-0.6c-0.4,0.3 -0.7,0.6 -0.9,1c-0.2,0.4 -0.4,0.9 -0.4,1.4c0,0.6 0.2,1.2 0.8,1.7c0.5,0.4 1.5,0.6 2.9,0.6l4,0c2.4,0 4.2,0.4 5.4,1.2c1.2,0.8 1.8,2 1.8,3.8c0,0.9 -0.2,1.9 -0.7,2.8c-0.5,0.9 -1.2,1.7 -2,2.3c-0.9,0.6 -2,1.2 -3.3,1.6c-1.3,0.5 -2.7,0.5 -4.3,0.5Zm0.5,-2.4c1,0 1.9,-0.2 2.7,-0.4c0.8,-0.2 1.5,-0.6 2,-0.9c0.6,-0.4 1,-0.9 1.3,-1.3c0.3,-0.5 0.5,-1 0.5,-1.6c0,-0.9 -0.4,-1.7 -1.1,-2c-0.7,-0.4 -1.7,-0.6 -3.1,-0.6l-3.5,0c-0.4,0 -0.9,0 -1.3,-0.1c-0.5,-0.1 -0.9,-0.2 -1.4,-0.3c-0.7,0.6 -1.3,1.1 -1.7,1.7c-0.3,0.6 -0.5,1.2 -0.5,1.8c0,1.1 0.6,2 1.6,2.6c1.2,0.8 2.6,1.1 4.5,1.1Zm-0.5,-16c0.6,0 1.2,-0.1 1.7,-0.3c0.6,-0.2 1,-0.6 1.4,-0.9c0.4,-0.4 0.7,-0.9 0.9,-1.6c0.2,-0.6 0.3,-1.3 0.3,-2c0,-1.5 -0.4,-2.7 -1.3,-3.5c-0.9,-0.9 -1.9,-1.3 -3.1,-1.3c-1.2,0 -2.3,0.4 -3.1,1.3c-0.9,0.9 -1.3,2 -1.3,3.5c0,0.8 0.1,1.4 0.3,2c0.2,0.6 0.6,1.1 0.9,1.6c0.4,0.4 0.9,0.8 1.4,0.9c0.8,0.2 1.3,0.3 1.9,0.3Z" style="fill:#312933;fill-rule:nonzero;"/><path d="M96.6,32l0,-30.3l3.5,0l0,8.3l-0.2,4.2c1,-0.9 2,-1.7 3.1,-2.4c1.1,-0.6 2.4,-1 3.8,-1c2.2,0 3.8,0.7 4.8,2c1,1.3 1.5,3.4 1.5,6.1l0,13.1l-3.5,0l0,-12.7c0,-2 -0.3,-3.4 -0.9,-4.2c-0.6,-0.9 -1.7,-1.3 -3,-1.3c-1.1,0 -2,0.2 -2.8,0.8c-0.8,0.6 -1.7,1.3 -2.8,2.4l0,14.9l-3.5,0.1Z" style="fill:#312933;fill-rule:nonzero;"/><path d="M124,32.5c-1.1,0 -2,-0.2 -2.8,-0.5c-0.7,-0.3 -1.3,-0.8 -1.8,-1.4c-0.5,-0.6 -0.8,-1.3 -1,-2.2c-0.2,-0.9 -0.3,-1.8 -0.3,-2.8l0,-11.4l-3.1,0l0,-2.6l3.2,-0.2l0.5,-5.8l2.9,0l0,5.7l5.6,0l0,2.9l-5.6,0l0,11.5c0,1.3 0.2,2.3 0.7,3c0.5,0.7 1.3,1 2.5,1c0.4,0 0.8,-0.1 1.2,-0.2c0.4,-0.1 0.8,-0.2 1.2,-0.4l0.7,2.6c-0.6,0.2 -1.2,0.4 -1.8,0.6c-0.7,0.1 -1.4,0.2 -2.1,0.2Z" style="fill:#312933;fill-rule:nonzero;"/></g><g><path d="M138.5,32l0,-20.7l2.9,0l0.3,3.8l0.2,0c0.7,-1.3 1.6,-2.4 2.6,-3.1c1,-0.8 2.1,-1.2 3.3,-1.2c0.8,0 1.6,0.2 2.2,0.4l-0.7,3.1c-0.3,-0.1 -0.6,-0.2 -0.9,-0.2c-0.3,-0.1 -0.6,-0.1 -1.1,-0.1c-0.9,0 -1.8,0.3 -2.8,1c-1,0.7 -1.8,2 -2.5,3.7l0,13.2l-3.5,0.1Z" style="fill:#312933;fill-rule:nonzero;"/><path d="M151.2,32l0,-20.7l3.5,0l0,20.6l-3.5,0.1Z" style="fill:#312933;fill-rule:nonzero;"/><path d="M166.4,41.5c-1.3,0 -2.4,-0.2 -3.5,-0.4c-1.1,-0.2 -2,-0.6 -2.7,-1.1c-0.8,-0.5 -1.3,-1 -1.7,-1.7c-0.4,-0.7 -0.6,-1.5 -0.6,-2.4c0,-0.9 0.2,-1.7 0.8,-2.5c0.6,-0.8 1.3,-1.5 2.2,-2.2l0,-0.2c-0.5,-0.3 -0.9,-0.7 -1.3,-1.3c-0.4,-0.6 -0.6,-1.3 -0.6,-2c0,-0.9 0.2,-1.7 0.7,-2.3c0.5,-0.6 1,-1.2 1.5,-1.5l0,-0.2c-0.7,-0.6 -1.3,-1.3 -1.8,-2.3c-0.6,-0.9 -0.9,-2 -0.9,-3.3c0,-1.1 0.2,-2.1 0.6,-3.1c0.4,-0.9 0.9,-1.7 1.7,-2.3c0.7,-0.6 1.6,-1.1 2.5,-1.5c0.9,-0.3 2,-0.5 3,-0.5c0.6,0 1.1,0.1 1.6,0.2c0.5,0.1 0.9,0.2 1.3,0.4l7.2,0l0,2.7l-4.2,0c0.5,0.5 0.9,1.1 1.2,1.8c0.3,0.7 0.5,1.6 0.5,2.4c0,1.1 -0.2,2.1 -0.6,3c-0.4,0.9 -0.9,1.7 -1.7,2.3c-0.7,0.6 -1.5,1.1 -2.4,1.4c-0.9,0.3 -1.9,0.5 -3,0.5c-0.5,0 -1,-0.1 -1.6,-0.2c-0.6,-0.2 -1,-0.3 -1.5,-0.6c-0.4,0.3 -0.7,0.6 -0.9,1c-0.2,0.4 -0.4,0.9 -0.4,1.4c0,0.6 0.2,1.2 0.8,1.7c0.5,0.4 1.5,0.6 2.9,0.6l4,0c2.4,0 4.2,0.4 5.4,1.2c1.2,0.8 1.8,2 1.8,3.8c0,0.9 -0.2,1.9 -0.7,2.8c-0.5,0.9 -1.2,1.7 -2,2.3c-0.9,0.6 -2,1.2 -3.3,1.6c-1.3,0.5 -2.6,0.5 -4.3,0.5Zm0.6,-2.4c1,0 1.9,-0.2 2.7,-0.4c0.8,-0.2 1.5,-0.6 2,-0.9c0.6,-0.4 1,-0.9 1.3,-1.3c0.3,-0.5 0.5,-1 0.5,-1.6c0,-0.9 -0.4,-1.7 -1.1,-2c-0.7,-0.4 -1.7,-0.6 -3.1,-0.6l-3.5,0c-0.4,0 -0.9,0 -1.3,-0.1c-0.5,-0.1 -0.9,-0.2 -1.4,-0.3c-0.7,0.6 -1.3,1.1 -1.7,1.7c-0.3,0.6 -0.5,1.2 -0.5,1.8c0,1.1 0.6,2 1.6,2.6c1.1,0.8 2.6,1.1 4.5,1.1Zm-0.6,-16c0.6,0 1.2,-0.1 1.7,-0.3c0.6,-0.2 1,-0.6 1.4,-0.9c0.4,-0.4 0.7,-0.9 0.9,-1.6c0.2,-0.6 0.3,-1.3 0.3,-2c0,-1.5 -0.4,-2.7 -1.3,-3.5c-0.9,-0.9 -1.9,-1.3 -3.1,-1.3c-1.2,0 -2.3,0.4 -3.1,1.3c-0.9,0.9 -1.3,2 -1.3,3.5c0,0.8 0.1,1.4 0.3,2c0.2,0.6 0.6,1.1 0.9,1.6c0.4,0.4 0.9,0.8 1.4,0.9c0.8,0.2 1.4,0.3 1.9,0.3Z" style="fill:#312933;fill-rule:nonzero;"/><path d="M178.8,32l0,-30.3l3.5,0l0,8.3l-0.2,4.2c1,-0.9 2,-1.7 3.1,-2.4c1.1,-0.6 2.4,-1 3.8,-1c2.2,0 3.8,0.7 4.8,2c1,1.3 1.5,3.4 1.5,6.1l0,13.1l-3.5,0l0,-12.7c0,-2 -0.3,-3.4 -0.9,-4.2c-0.6,-0.9 -1.7,-1.3 -3,-1.3c-1.1,0 -2,0.2 -2.8,0.8c-0.8,0.6 -1.7,1.3 -2.8,2.4l0,14.9l-3.5,0.1Z" style="fill:#312933;fill-rule:nonzero;"/><path d="M206.2,32.5c-1.1,0 -2,-0.2 -2.8,-0.5c-0.7,-0.3 -1.3,-0.8 -1.8,-1.4c-0.5,-0.6 -0.8,-1.3 -1,-2.2c-0.2,-0.9 -0.3,-1.8 -0.3,-2.8l0,-11.4l-3.1,0l0,-2.6l3.2,-0.2l0.4,-5.7l2.9,0l0,5.7l5.6,0l0,2.8l-5.6,0l0,11.5c0,1.3 0.2,2.3 0.7,3c0.5,0.7 1.3,1 2.5,1c0.4,0 0.8,-0.1 1.2,-0.2c0.4,-0.1 0.8,-0.2 1.2,-0.4l0.7,2.6c-0.6,0.2 -1.2,0.4 -1.8,0.6c-0.6,0.1 -1.3,0.2 -2,0.2Z" style="fill:#312933;fill-rule:nonzero;"/></g><g><path d="M42.1,41.5c0,0.4 -0.4,0.8 -0.8,0.8l-40.5,0c-0.5,0 -0.8,-0.4 -0.8,-0.8l0,-40.4c0,-0.4 0.3,-0.8 0.8,-0.8l40.5,0c0.4,0 0.8,0.3 0.8,0.8l0,40.4Z" style="fill:#312933;fill-rule:nonzero;"/></g><g><g><path d="M19.8,22.8l6.8,-6.8c0.3,-0.3 0.3,-0.8 0,-1.1l-0.8,-0.8c-0.3,-0.3 -0.9,-0.4 -1.2,-0.2l-10.3,6.8c-0.4,0.2 -0.9,0.3 -1.3,0.1l-6.3,-3.1c-0.4,-0.2 -0.9,-0.1 -1.3,0.2l-0.8,0.8c-0.3,0.3 -0.3,0.8 0,1.1l8.5,8.5c0.3,0.3 0.8,0.3 1.1,0l5.6,-5.5Z" style="fill:#faf9fb;fill-rule:nonzero;"/></g><g><path d="M36.7,14.1c-0.3,-0.3 -0.9,-0.4 -1.2,-0.2l-10.3,6.8c-0.4,0.2 -0.9,0.3 -1.1,0.2c-0.2,-0.1 -0.7,0 -0.9,0.3l-2.5,2.5c-0.3,0.3 -0.3,0.8 0,1.1l3.4,3.4c0.3,0.3 0.8,0.3 1.1,0l12.5,-12.5c0.3,-0.3 0.3,-0.8 0,-1.1l-1,-0.5Z" style="fill:#faf9fb;fill-rule:nonzero;"/></g></g></g></svg>